<svg width="20" height="20" viewBox="0 0 20 20" fill="none" xmlns="http://www.w3.org/2000/svg">
<path fill-rule="evenodd" clip-rule="evenodd" d="M4.5683 0.686859C8.14892 0.286672 11.8505 0.286672 15.4311 0.686859C17.4293 0.910184 19.0413 2.4845 19.2759 4.49056C19.7041 8.15113 19.7041 11.8491 19.2759 15.5097C19.0413 17.5157 17.4293 19.0901 15.4311 19.3134C11.8505 19.7136 8.14892 19.7136 4.5683 19.3134C2.57012 19.0901 0.958074 17.5157 0.723446 15.5097C0.29531 11.8491 0.29531 8.15113 0.723446 4.49056C0.958074 2.4845 2.57012 0.910184 4.5683 0.686859ZM9.99972 4.17536C10.483 4.17536 10.8747 4.56711 10.8747 5.05036V9.12511H14.9495C15.4327 9.12511 15.8245 9.51686 15.8245 10.0001C15.8245 10.4834 15.4327 10.8751 14.9495 10.8751H10.8747V14.9499C10.8747 15.4331 10.483 15.8249 9.99972 15.8249C9.51647 15.8249 9.12471 15.4331 9.12471 14.9499V10.8751H5.05C4.56675 10.8751 4.175 10.4834 4.175 10.0001C4.175 9.51686 4.56675 9.12511 5.05 9.12511H9.12472V5.05036C9.12472 4.56711 9.51647 4.17536 9.99972 4.17536Z" fill="#1F2349"/>
</svg>
